<?xml version="1.0" encoding="utf-8"?>
<!-- Generator: Adobe Illustrator 24.3.0, SVG Export Plug-In . SVG Version: 6.00 Build 0)  -->
<svg version="1.0" id="c" xmlns="http://www.w3.org/2000/svg" xmlns:xlink="http://www.w3.org/1999/xlink" x="0px" y="0px"
	 viewBox="0 0 1921.33 1462.67" style="enable-background:new 0 0 1921.33 1462.67;" xml:space="preserve">
<style type="text/css">
	.st0{fill:#213147;}
	.st1{fill:#12AAFF;}
	.st2{fill:#9DCCED;}
	.st3{fill:#FFFFFF;}
</style>
<path class="st0" d="M510.14,515.68v431.21c0,27.53,14.71,52.99,38.54,66.71l373.44,215.65c23.83,13.72,53.17,13.72,77,0
	l373.44-215.65c23.83-13.72,38.54-39.18,38.54-66.71V515.68c0-27.53-14.71-52.99-38.54-66.71L999.12,233.32
	c-23.83-13.72-53.17-13.72-77,0L548.59,448.97C524.76,462.69,510.14,488.15,510.14,515.68L510.14,515.68z"/>
<g>
	<path class="st1" d="M1042.09,814.92l-53.26,146.05c-1.44,4.06-1.44,8.49,0,12.55l91.62,251.3l105.97-61.2l-127.19-348.7
		c-2.89-8.03-14.26-8.03-17.15,0H1042.09z"/>
	<path class="st1" d="M1148.88,569.3c-2.89-8.03-14.26-8.03-17.15,0l-53.26,146.05c-1.44,4.06-1.44,8.49,0,12.55l150.11,411.44
		l105.97-61.2L1148.87,569.3L1148.88,569.3z"/>
</g>
<path class="st2" d="M960.58,249.48c2.62,0,5.24,0.72,7.58,1.99l404.13,233.34c4.69,2.71,7.58,7.76,7.58,13.09v466.59
	c0,5.42-2.89,10.38-7.58,13.09l-404.13,233.34c-2.26,1.35-4.96,1.99-7.58,1.99s-5.24-0.72-7.58-1.99L548.87,977.76
	c-4.69-2.71-7.58-7.76-7.58-13.09V497.99c0-5.42,2.89-10.38,7.58-13.09L953,251.56C955.35,250.21,957.96,249.48,960.58,249.48
	 M960.58,181.33c-14.35,0-28.8,3.7-41.7,11.19L514.84,425.77c-25.82,14.89-41.7,42.43-41.7,72.21v466.59
	c0,29.79,15.89,57.32,41.7,72.21l404.13,233.34c12.91,7.4,27.26,11.19,41.7,11.19s28.8-3.7,41.7-11.19l404.13-233.34
	c25.82-14.89,41.7-42.43,41.7-72.21V497.98c0-29.79-15.89-57.32-41.7-72.21l-404.22-233.25
	C989.37,185.03,974.93,181.33,960.58,181.33L960.58,181.33L960.58,181.33z"/>
<polygon class="st0" points="693.3,1139.88 730.49,1038.06 805.32,1100.25 735.36,1164.16 "/>
<g>
	<path class="st3" d="M926.55,464.59H824.1c-7.67,0-14.53,4.78-17.15,12.01l-219.62,602.08l105.97,61.2l241.83-663.01
		C937.39,470.91,932.96,464.59,926.55,464.59L926.55,464.59z"/>
	<path class="st3" d="M1105.82,464.59h-102.45c-7.67,0-14.53,4.78-17.15,12.01l-250.76,687.48l105.97,61.2l272.97-748.41
		C1116.57,470.91,1112.14,464.59,1105.82,464.59L1105.82,464.59z"/>
</g>
</svg>
